<svg xmlns="http://www.w3.org/2000/svg" width="240" height="240" viewBox="0 0 240 240"><defs><radialGradient id="spot" cx="50%" cy="42%" r="62%"><stop offset="0" stop-color="#ffa047"/><stop offset="0.28" stop-color="#f47216"/><stop offset="0.62" stop-color="#13275a"/><stop offset="1" stop-color="#0b1838"/></radialGradient></defs><rect width="240" height="240" rx="40" fill="url(#spot)"/><ellipse cx="120" cy="226" rx="96" ry="7" fill="#050b1c" opacity="0.7"/><g transform="translate(20 8) scale(1.0)"><path d="M92.0 124.0 L62.0 160.0" fill="none" stroke="#050b1c" stroke-width="19" stroke-linecap="round" stroke-linejoin="round"/><path d="M62.0 160.0 L44.0 200.0" fill="none" stroke="#050b1c" stroke-width="14" stroke-linecap="round" stroke-linejoin="round"/><path d="M44.0 200.0 L26.0 208.0" fill="none" stroke="#050b1c" stroke-width="9" stroke-linecap="round" stroke-linejoin="round"/><rect x="21" y="206" width="28" height="5" rx="2" fill="#050b1c"/><path d="M108.0 124.0 L140.0 160.0" fill="none" stroke="#050b1c" stroke-width="19" stroke-linecap="round" stroke-linejoin="round"/><path d="M140.0 160.0 L158.0 200.0" fill="none" stroke="#050b1c" stroke-width="14" stroke-linecap="round" stroke-linejoin="round"/><path d="M158.0 200.0 L176.0 208.0" fill="none" stroke="#050b1c" stroke-width="9" stroke-linecap="round" stroke-linejoin="round"/><rect x="153" y="206" width="28" height="5" rx="2" fill="#050b1c"/><path d="M84 128 L116 128 L118 112 Q119 90 128 66 Q102 54 74 64 Q80 90 82 112 Z" fill="#050b1c"/><path d="M93 60 L107 58 L106 48 L95 49 Z" fill="#050b1c"/><g transform="translate(1 4) rotate(9 100 44)"><ellipse cx="100" cy="36" rx="12" ry="13.5" fill="#050b1c"/><path d="M87.5 36 Q86 26 91 22.5 Q93 19 98 20 Q101 17.5 105 19.5 Q110 19 112 23 Q115.5 27 112.5 36 Q111 29 104.5 28.5 Q100 27.5 95 29 Q89.5 29.5 87.5 36 Z" fill="#050b1c"/></g><path d="M124.0 68.0 L137.0 106.0" fill="none" stroke="#050b1c" stroke-width="11" stroke-linecap="round" stroke-linejoin="round"/><path d="M77.0 68.0 L62.0 100.0" fill="none" stroke="#050b1c" stroke-width="11.5" stroke-linecap="round" stroke-linejoin="round"/><g transform="translate(92 132) rotate(-42) scale(1.22)" fill="#f47216" stroke="#f47216" stroke-width="3.93" stroke-linejoin="round"><mask id="g1a" maskUnits="userSpaceOnUse" x="-60" y="-60" width="220" height="120"><rect x="-60" y="-60" width="220" height="120" fill="#fff"/><circle cx="25" cy="12.5" r="5.53" fill="#000"/></mask><g mask="url(#g1a)"><circle cx="0" cy="0" r="18"/><circle cx="16" cy="-2" r="13.5"/><path d="M0 -18 C10 -18 12 -15.5 16 -15.5 L16 11.5 C10 12.5 6 18 0 18 Z"/></g><rect x="22" y="-2.7" width="58" height="5.4" rx="1"/><path d="M79 -3.4 L95 -6 Q97 -6 97 -4 L97 4 Q97 6 95 6 L79 3.4 Z"/></g><g transform="translate(92 132) rotate(-42) scale(1.22)" fill="#050b1c"><mask id="g1b" maskUnits="userSpaceOnUse" x="-60" y="-60" width="220" height="120"><rect x="-60" y="-60" width="220" height="120" fill="#fff"/><circle cx="25" cy="12.5" r="7.50" fill="#000"/></mask><g mask="url(#g1b)"><circle cx="0" cy="0" r="18"/><circle cx="16" cy="-2" r="13.5"/><path d="M0 -18 C10 -18 12 -15.5 16 -15.5 L16 11.5 C10 12.5 6 18 0 18 Z"/></g><rect x="22" y="-2.7" width="58" height="5.4" rx="1"/><path d="M79 -3.4 L95 -6 Q97 -6 97 -4 L97 4 Q97 6 95 6 L79 3.4 Z"/></g><path d="M62.0 100.0 L88.0 126.0" fill="none" stroke="#f47216" stroke-width="14.5" stroke-linecap="round" stroke-linejoin="round"/><path d="M62.0 100.0 L88.0 126.0" fill="none" stroke="#050b1c" stroke-width="10" stroke-linecap="round" stroke-linejoin="round"/><path d="M137.0 106.0 L154.4 75.8" fill="none" stroke="#f47216" stroke-width="14.0" stroke-linecap="round" stroke-linejoin="round"/><path d="M137.0 106.0 L154.4 75.8" fill="none" stroke="#050b1c" stroke-width="9.5" stroke-linecap="round" stroke-linejoin="round"/><circle cx="89" cy="127" r="6" fill="#050b1c"/><circle cx="154.4" cy="75.8" r="5.5" fill="#050b1c"/></g></svg>